<?xml version="1.0" encoding="utf-8"?><svg version="1.1" xmlns="http://www.w3.org/2000/svg" xmlns:xlink="http://www.w3.org/1999/xlink" x="0px" y="0px" viewBox="274 123.9 1143.7 595" style="enable-background:new 274 123.9 1143.7 595;" xml:space="preserve"><style type="text/css">.st0{display:none;}.st1{display:inline;}.st2{clip-path:url(#SVGID_2_);}.st3{fill:#110F0D;}.st4{fill:#44C0B2;}.st5{fill:#FFFFFF;}</style><g id="svg2" xmlns:cc="http://creativecommons.org/ns#" xmlns:rdf="http://www.w3.org/1999/02/22-rdf-syntax-ns#" xmlns:dc="http://purl.org/dc/elements/1.1/" xmlns:svg="http://www.w3.org/2000/svg" class="st0"><g id="g10" transform="matrix(1.3333333,0,0,-1.3333333,0,1152)" class="st1"><g id="g12"><g><g><defs><rect id="SVGID_1_" x="-516.4" y="-220.3" width="2304" height="1536"/></defs><clipPath id="SVGID_2_"><use xlink:href="#SVGID_1_" style="overflow:visible;"/></clipPath><g id="g14" class="st2"><g id="g20" transform="translate(218.4155,473.6338)"><path id="path22" class="st3" d="M-12.4,115.7h51.7V1h1c5.1,10,10.6,19.2,15.8,28.5l52.4,86.2h64L96.2,5.2l80.5-148.9h-61l-56.5,112L39.3-59v-84.7h-51.7V115.7z"/></g><g id="g24" transform="translate(522.5225,329.7236)"><path id="path26" class="st3" d="M-12.4,115.7c0,14.2-5.5,38.1-29.4,38.1c-21.9,0-30.8-22.3-32.2-38.1H-12.4z M-73.7,75.7c1.7-24.2,22.9-35.8,47.3-35.8c17.8,0,32.2,2.7,46.2,7.7L26.6,8C9.5,0.3-11.4-3.9-34-3.9c-56.8,0-89.4,37.3-89.4,96.2c0,47.7,26.4,100.4,84.6,100.4c54.1,0,74.7-47.3,74.7-93.9c0-10-1-18.9-1.7-23.1L-73.7,75.7z"/></g><g id="g28" transform="translate(667.0566,456.3159)"><path id="path30" class="st3" d="M-12.4,115.7V61.8H25V18.7h-37.3v-68.1c0-22.7,4.8-33.1,20.5-33.1c6.5,0,11.6,0.8,15.4,1.5l0.3-44.2c-6.9-3.1-19.2-5.4-33.9-5.4c-16.8,0-30.8,6.9-39,16.5c-9.6,11.2-14.4,29.2-14.4,55.8v77h-22.3v43.1h22.3v40.8L-12.4,115.7z"/></g><g id="g32" transform="translate(799.5898,456.3159)"><path id="path34" class="st3" d="M-12.4,115.7V61.8H25V18.7h-37.3v-68.1c0-22.7,4.8-33.1,20.5-33.1c6.5,0,11.6,0.8,15.4,1.5l0.3-44.2c-6.9-3.1-19.2-5.4-33.9-5.4c-16.8,0-30.8,6.9-39,16.5c-9.6,11.2-14.4,29.2-14.4,55.8v77h-22.3v43.1h22.3v40.8L-12.4,115.7z"/></g><g id="g36" transform="translate(909.5186,307.7881)"><path id="path38" class="st3" d="M-12.4,115.7c0-30,10.6-55.8,33.9-55.8c22.9,0,33.6,25.4,33.6,55.8c0,26.9-7.9,57.3-33.6,57.3S-12.4,142.2-12.4,115.7 M108.9,116.5C108.9,46.1,61,18,19.2,18c-47.6,0-85.3,36.6-85.3,98.1c0,63.5,40.1,98.5,89.4,98.5C73.6,214.6,108.9,177.2,108.9,116.5"/></g><g id="g40" transform="translate(984.7832,497.856)"><path id="path42" class="st4" d="M-12.4,115.7c-0.3,0.5-0.7,1-1,1.4c4.4,36.2,55.8,38.7,55.8,70.4c0-21.7-47.3-13.3-74.4-30.9c-0.9,4.9-1.2,10.1-1.1,15.9c0,48.7,47.6,67.4,47.6,101.4c0-34.1-79-41.1-88.4-98.7c-8.9,7.4-18.4,12.4-29.7,12.4c-18.4,0-27.9-18.2-27.9-18.2s16.4,5.3,21.9-13.8c4.6-16.2,17.4-86.1,189-68.1C79.4,87.5,26.8,91.8-12.4,115.7"/></g><g id="g44" transform="translate(875.8125,438.1494)"><path id="path46" class="st4" d="M-12.4,115.7c-0.1,0.2-0.2,0.3-0.3,0.5c1.6,13.3,19.9,14.7,21,25.7c-1.5-6.9-18.3-4.3-28.1-10.7c-0.3,1.9-0.5,3.8-0.4,6c0,18.5,18.1,25.6,18.1,38.5c0-13-30-15.6-33.5-37.5c-3.4,2.8-7,4.7-11.3,4.7c-7,0-10.6-6.9-10.6-6.9s6.2,2,8.3-5.2c1.8-6.2,6.6-32.7,71.7-25.8C22.5,105,2.5,106.6-12.4,115.7"/></g><g id="g48" transform="translate(896.5234,464.3325)"><path id="path50" class="st4" d="M-12.4,115.7c0.1,0.3,0.1,0.7,0.1,1.1C-12.3,116.4-12.3,116-12.4,115.7"/></g></g></g></g></g></g></g><g id="Layer_2"><g id="g12_1_"><g><path class="st5" d="M277.4,367.2h68.5v151.9h1.4c6.8-13.3,14.1-25.5,20.9-37.7l69.4-114.2h84.9L421.3,513.6l106.6,197.3h-80.8l-74.9-148.4l-26.3,36.2v112.2h-68.5V367.2z"/><path class="st5" d="M599.2,610.9c2.3,32.1,30.4,47.4,62.6,47.4c23.6,0,42.7-3.6,61.3-10.2l9.1,52.5c-22.7,10.2-50.4,15.8-80.3,15.8c-75.3,0-118.4-49.5-118.4-127.5c0-63.2,34.9-133.1,112.1-133.1c71.7,0,98.9,62.7,98.9,124.4c0,13.3-1.4,25-2.3,30.6H599.2z M680.4,557.9c0-18.9-7.3-50.5-39-50.5c-29,0-40.8,29.6-42.7,50.5H680.4z"/><path class="st5" d="M871.9,390.2v71.4h49.5v57.1h-49.5v90.2c0,30.1,6.3,43.8,27.2,43.8c8.6,0,15.4-1,20.4-2l0.5,58.6c-9.1,4.1-25.4,7.1-44.9,7.1c-22.2,0-40.8-9.2-51.7-21.9c-12.7-14.8-19.1-38.8-19.1-73.9v-102h-29.5v-57.1h29.5v-54L871.9,390.2z"/><path class="st5" d="M1047.5,390.2v71.4h49.5v57.1h-49.5v90.2c0,30.1,6.3,43.8,27.2,43.8c8.6,0,15.4-1,20.4-2l0.5,58.6c-9.1,4.1-25.4,7.1-44.9,7.1c-22.2,0-40.8-9.2-51.7-21.9c-12.7-14.8-19.1-38.8-19.1-73.9v-102h-29.5v-57.1h29.5v-54L1047.5,390.2z"/><path class="st5" d="M1353.8,586c0,93.3-63.5,130.5-118.9,130.5c-63.1,0-113-48.4-113-130c0-84.1,53.1-130.5,118.4-130.5C1307.1,455.9,1353.8,505.4,1353.8,586z M1193.2,587c0,39.8,14.1,73.9,44.9,73.9c30.4,0,44.5-33.7,44.5-73.9c0-35.7-10.4-76-44.5-76C1204.1,511,1193.2,551.8,1193.2,587z"/></g><g><path class="st5" d="M1292.9,335.1c-0.4-0.6-0.9-1.3-1.3-1.9c5.8-48,74-51.3,74-93.3c0,28.8-62.6,17.6-98.6,41c-1.2-6.5-1.7-13.3-1.5-21c0-64.5,63.1-89.3,63.1-134.4c0,45.2-104.7,54.5-117.1,130.7c-11.8-9.9-24.4-16.4-39.4-16.4c-24.4,0-36.9,24.1-36.9,24.1s21.7-7,29,18.3c6.1,21.5,23.1,114.1,250.4,90.2C1414.6,372.4,1344.9,366.8,1292.9,335.1z"/><g><path class="st5" d="M1148.5,414.2c-0.2-0.2-0.3-0.5-0.4-0.7c2.1-17.7,26.4-19.5,27.9-34c-2,9.2-24.2,5.7-37.3,14.1c-0.5-2.5-0.6-5.1-0.6-8c0-24.5,24-33.9,24-51c0,17.2-39.8,20.7-44.5,49.7c-4.5-3.7-9.3-6.3-15-6.3c-9.3,0-14,9.1-14,9.1s8.3-2.7,11,6.9c2.3,8.2,8.8,43.3,95.1,34.3C1194.7,428.4,1168.3,426.3,1148.5,414.2z"/><path class="st5" d="M1176,379.5c0.1-0.4,0.2-0.9,0.2-1.4C1176.1,378.6,1176,379.1,1176,379.5z"/></g></g></g></g></svg>