<svg xmlns="http://www.w3.org/2000/svg" width="31" height="30" fill="none" viewBox="0 0 31 30"><path fill="#01BFBD" fill-rule="evenodd" d="M19.426 20.658c-.038-.065-.089-.13-.127-.183.555-4.727 7.036-5.053 7.036-9.193 0 2.834-5.964 1.737-9.38 4.035-.114-.64-.152-1.319-.14-2.076 0-6.36 6.002-8.801 6.002-13.24 0 4.452-9.96 5.366-11.145 12.888-1.123-.967-2.32-1.62-3.745-1.62-2.32 0-3.518 2.377-3.518 2.377s2.068-.692 2.761 1.802C7.75 17.563 9.364 26.69 31 24.34c0 0-6.632-.561-11.574-3.682M5.686 28.454c-.012-.026-.025-.039-.038-.065.202-1.737 2.51-1.92 2.648-3.356-.189.901-2.307.562-3.543 1.397a4 4 0 0 1-.05-.783c0-2.416 2.282-3.343 2.282-5.027 0 1.697-3.783 2.037-4.224 4.896-.428-.365-.882-.613-1.425-.613-.882 0-1.336.9-1.336.9s.782-.26 1.046.68c.227.81.833 4.27 9.04 3.369 0 0-2.521-.21-4.4-1.398" clip-rule="evenodd"/></svg>