<svg width="31" height="30" viewBox="0 0 31 30" fill="none" xmlns="http://www.w3.org/2000/svg">
<path fill-rule="evenodd" clip-rule="evenodd" d="M19.4256 20.658C19.3878 20.5927 19.3373 20.5274 19.2995 20.4752C19.8543 15.7482 26.3349 15.4217 26.3349 11.2823C26.3349 14.1159 20.3712 13.019 16.9544 15.3172C16.8409 14.6774 16.8031 13.9984 16.8157 13.241C16.8157 6.88177 22.8172 4.43993 22.8172 0.000205994C22.8172 4.45298 12.8567 5.36704 11.6715 12.8885C10.5494 11.9222 9.35161 11.2693 7.92688 11.2693C5.60696 11.2693 4.40918 13.6458 4.40918 13.6458C4.40918 13.6458 6.47693 12.9537 7.17038 15.4478C7.75036 17.5632 9.36422 26.6908 31 24.3403C31 24.3403 24.368 23.7788 19.4256 20.658Z" fill="#01BFBD"/>
<path fill-rule="evenodd" clip-rule="evenodd" d="M5.68631 28.4543C5.6737 28.4282 5.6611 28.4151 5.64849 28.389C5.85022 26.6523 8.15753 26.4695 8.29622 25.0331C8.10709 25.9341 5.98891 25.5946 4.7533 26.4303C4.71548 26.1822 4.69026 25.9341 4.70287 25.6468C4.70287 23.2311 6.98496 22.304 6.98496 20.6195C6.98496 22.317 3.20249 22.6565 2.7612 25.5163C2.33252 25.1506 1.87863 24.9025 1.33647 24.9025C0.453896 24.9025 0 25.8035 0 25.8035C0 25.8035 0.78171 25.5424 1.04648 26.4825C1.27343 27.2921 1.87863 30.7525 10.0866 29.8515C10.0866 29.8515 7.56494 29.6426 5.68631 28.4543Z" fill="#01BFBD"/>
</svg>
